<?xml version="1.0" encoding="utf-8"?>
<!-- Generator: Adobe Illustrator 16.0.0, SVG Export Plug-In . SVG Version: 6.00 Build 0)  -->
<!DOCTYPE svg PUBLIC "-//W3C//DTD SVG 1.1//EN" "http://www.w3.org/Graphics/SVG/1.1/DTD/svg11.dtd">
<svg version="1.1" id="Layer_1" xmlns="http://www.w3.org/2000/svg" xmlns:xlink="http://www.w3.org/1999/xlink" x="0px" y="0px"
	 width="130px" height="130px" viewBox="0 0 130 130" enable-background="new 0 0 130 130" xml:space="preserve">
<g>
	<g id="Shape_1_copy_3_31_">
		<ellipse fill="#D0422B" cx="65" cy="65" rx="64" ry="64.017"/>
	</g>
	<g id="g">
		<path fill="#FFFFFF" d="M75.419,40.179H59.72c-2.082,0-4.314,0.23-6.694,0.689c-2.407,0.535-4.725,1.675-6.957,3.419
			c-3.249,2.981-4.872,6.303-4.872,9.961c0,3.032,1.147,5.686,3.445,7.965c2.193,2.446,5.385,3.695,9.571,3.744
			c0.79,0,1.633-0.048,2.525-0.146c-0.147,0.394-0.308,0.824-0.48,1.292c-0.196,0.443-0.296,0.998-0.296,1.664
			c0,1.109,0.26,2.061,0.778,2.85c0.443,0.814,0.949,1.577,1.517,2.293c-1.837,0.048-4.146,0.264-6.927,0.651
			c-2.806,0.459-5.484,1.377-8.034,2.751c-2.271,1.28-3.84,2.766-4.707,4.456c-0.892,1.688-1.338,3.222-1.338,4.599
			c0,2.824,1.37,5.251,4.108,7.278c2.714,2.174,6.821,3.284,12.325,3.332c6.573-0.098,11.604-1.589,15.089-4.475
			c3.361-2.79,5.044-5.992,5.044-9.604c-0.05-2.548-0.658-4.609-1.828-6.186c-1.242-1.553-2.688-2.971-4.334-4.256l-2.652-2.074
			c-0.382-0.363-0.776-0.787-1.183-1.274c-0.479-0.509-0.715-1.15-0.715-1.929c0-0.8,0.23-1.502,0.695-2.109
			c0.395-0.582,0.824-1.103,1.289-1.564c0.812-0.679,1.578-1.346,2.3-2.001c0.649-0.654,1.266-1.37,1.847-2.146
			c1.183-1.6,1.798-3.733,1.846-6.403c0-1.454-0.173-2.727-0.518-3.818c-0.417-1.093-0.899-2.039-1.44-2.84
			c-0.566-0.848-1.146-1.563-1.734-2.146c-0.616-0.558-1.17-0.983-1.661-1.272h4.822L75.419,40.179z M66.783,80.899
			c1.299,1.405,1.949,3.054,1.949,4.945c0,2.327-0.951,4.23-2.851,5.709c-1.949,1.503-4.774,2.279-8.475,2.327
			c-4.124-0.048-7.375-0.922-9.75-2.618c-2.5-1.696-3.75-3.854-3.75-6.473c0-1.333,0.288-2.473,0.862-3.417
			c0.5-0.897,1.112-1.648,1.838-2.255c0.75-0.581,1.488-1.03,2.213-1.345c0.724-0.291,1.287-0.509,1.688-0.654
			c1.699-0.485,3.362-0.837,4.988-1.055c1.648-0.146,2.673-0.193,3.073-0.146c0.676,0,1.263,0.023,1.764,0.073
			C63.257,77.931,65.408,79.566,66.783,80.899z M64.271,58.919c-0.185,0.997-0.598,1.97-1.24,2.919
			c-1.382,1.338-3.108,2.042-5.18,2.116c-1.644,0-3.102-0.474-4.379-1.423s-2.32-2.104-3.127-3.467
			c-1.67-2.918-2.504-5.727-2.504-8.428c-0.051-2.043,0.519-3.89,1.708-5.545c1.41-1.581,3.181-2.396,5.309-2.443
			c1.608,0.048,3.031,0.497,4.269,1.349c1.214,0.899,2.191,2.068,2.934,3.502c1.583,2.993,2.375,5.961,2.375,8.902
			C64.435,57.083,64.381,57.922,64.271,58.919z M93.075,51.452V40.908h-3.257v10.544H79.407v3.349h10.411v10.737h3.257V54.801h10.31
			v-3.349H93.075z"/>
	</g>
</g>
</svg>
