<?xml version="1.0" encoding="iso-8859-1"?>
<!-- Generator: Adobe Illustrator 19.1.0, SVG Export Plug-In . SVG Version: 6.00 Build 0)  -->
<svg xmlns="http://www.w3.org/2000/svg" xmlns:xlink="http://www.w3.org/1999/xlink" version="1.1" id="Capa_1" x="0px" y="0px" viewBox="0 0 488.6 488.6" style="enable-background:new 0 0 488.6 488.6;" xml:space="preserve" width="512px" height="512px">
<g>
	<g>
		<g>
			<path d="M480.9,302.3c-27.2-22.3-56.5-37.1-62.4-40c-0.7-0.3-1.1-1-1.1-1.8v-42.3c5.3-3.5,8.8-9.6,8.8-16.5v-43.9     c0-21.8-17.7-39.5-39.5-39.5H382h-4.7c-21.8,0-39.5,17.7-39.5,39.5v43.9c0,6.9,3.5,12.9,8.8,16.5v42.3c0,0.3-0.1,0.5-0.1,0.7     c8.3,5.7,17,12.1,25.5,19.1c9.9,8.2,15.6,20.2,15.6,33.2v35.3h101v-30.1C488.6,312.4,485.8,306.4,480.9,302.3z" fill="rgba(255, 255, 255, 0.1)"/>
		</g>
		<g>
			<path d="M142,260.5v-42.3c5.3-3.5,8.8-9.6,8.8-16.5v-43.9c0-21.8-17.7-39.5-39.5-39.5h-4.7h-4.7c-21.8,0-39.5,17.7-39.5,39.5     v43.9c0,6.9,3.5,12.9,8.8,16.5v42.3c0,0.7-0.4,1.4-1.1,1.8c-6,2.9-35.3,17.7-62.4,40c-4.9,4-7.7,10.1-7.7,16.4v30.1h101v-35.3     c0-12.9,5.7-25,15.6-33.2c8.5-7,17.2-13.4,25.5-19.1C142.1,261,142,260.8,142,260.5z" fill="rgba(255, 255, 255, 0.1)"/>
		</g>
		<g>
			<path d="M360.5,294.2c-31.9-26.2-66.3-43.6-73.4-47.1c-0.8-0.4-1.3-1.2-1.3-2.1v-49.7c6.2-4.2,10.4-11.3,10.4-19.3v-51.5     c0-25.6-20.8-46.4-46.4-46.4h-5.5h-5.5c-25.6,0-46.4,20.8-46.4,46.4V176c0,8.1,4.1,15.2,10.4,19.3V245c0,0.9-0.5,1.7-1.3,2.1     c-7,3.4-41.4,20.8-73.4,47.1c-5.8,4.7-9.1,11.8-9.1,19.3v35.3h47.3v-4c0-10.3,7.3-18.9,17-20.9c0.1-0.2,0.2-0.4,0.3-0.6     c-2.3-3.4-3.5-7.5-3.5-11.7c0-5.7,2.2-11,6.2-15.1l5.7-5.7c4-4,9.4-6.2,15.1-6.2c4.3,0,8.4,1.3,11.8,3.6c0.2-0.1,0.3-0.1,0.5-0.2     c1.9-9.8,10.5-17.2,20.9-17.2h8.1l0,0l0,0c10.4,0,19,7.4,20.9,17.2c0.1,0.1,0.2,0.1,0.4,0.2c3.5-2.4,7.6-3.7,12-3.7     c5.7,0,11,2.2,15,6.2l5.7,5.7c7.3,7.3,8.2,18.7,2.6,27c0.1,0.1,0.1,0.2,0.2,0.4c9.8,1.9,17.3,10.5,17.3,20.9v4.1h47.3v-35.3     C369.6,306,366.3,298.9,360.5,294.2z" fill="rgba(255, 255, 255, 0.1)"/>
		</g>
		<g>
			<path d="M301,339.4h-8c-1.3-6.6-3.8-12.9-7.8-18.6l5.7-5.7c2-2,2-5.4,0-7.4l-5.7-5.7c-2-2-5.4-2-7.4,0l-5.7,5.7     c-5.7-3.9-12.1-6.5-18.6-7.7v-8c0-2.9-2.3-5.2-5.2-5.2h-8.1c-2.9,0-5.2,2.3-5.2,5.2v7.9c-6.6,1.2-13,3.8-18.7,7.7l-5.6-5.6     c-2-2-5.4-2-7.4,0l-5.7,5.7c-2,2-2,5.4,0,7.4l5.5,5.5c-3.9,5.8-6.6,12.2-7.8,18.8h-7.7c-2.9,0-5.2,2.3-5.2,5.2v8.1     c0,2.9,2.3,5.2,5.2,5.2h7.7c1.2,6.6,3.8,13.1,7.8,18.8l-5.4,5.4c-2,2-2,5.4,0,7.4l5.7,5.7c2,2,5.4,2,7.4,0l5.4-5.4     c5.8,3.9,12.2,6.5,18.9,7.8v7.7c0,2.9,2.3,5.2,5.2,5.2h8.1c2.9,0,5.2-2.3,5.2-5.2v-7.7c6.6-1.3,13-3.9,18.7-7.8l5.5,5.5     c2,2,5.4,2,7.4,0l5.7-5.7c2-2,2-5.4,0-7.4l-5.6-5.6c3.9-5.8,6.4-12.1,7.7-18.7h7.9c2.9,0,5.2-2.3,5.2-5.2v-8.1     C306.3,341.8,303.9,339.4,301,339.4z M263.4,367.8c-10.5,10.5-27.6,10.6-38.2,0c-10.5-10.5-10.6-27.6,0-38.2     c10.5-10.5,27.6-10.6,38.2,0C273.9,340.2,273.9,357.3,263.4,367.8z" fill="rgba(255, 255, 255, 0.1)"/>
		</g>
	</g>
</g>
<g>
</g>
<g>
</g>
<g>
</g>
<g>
</g>
<g>
</g>
<g>
</g>
<g>
</g>
<g>
</g>
<g>
</g>
<g>
</g>
<g>
</g>
<g>
</g>
<g>
</g>
<g>
</g>
<g>
</g>
</svg>
