<?xml version="1.0" encoding="iso-8859-1"?>
<!-- Generator: Adobe Illustrator 19.0.0, SVG Export Plug-In . SVG Version: 6.00 Build 0)  -->
<svg version="1.1" id="Layer_1" xmlns="http://www.w3.org/2000/svg" xmlns:xlink="http://www.w3.org/1999/xlink" x="0px" y="0px"
	 viewBox="0 0 512 512" style="enable-background:new 0 0 512 512;" xml:space="preserve">
<path style="fill:#66C6B9;" d="M233.6,229.3c24.5,19.2,55.5,21.3,74.7,0c20.3-21.3,20.3-59.7-3.2-78.9
	c-20.3-24.5-149.3-18.1-150.4-12.8C155.7,132.3,212.3,204.8,233.6,229.3z"/>
<path style="fill:#415A6B;" d="M212.3,155.7c67.2,32,118.4,93.9,138.7,169.6c3.2-3.2,6.4-7.5,9.6-10.7
	C337.1,242.1,282.7,184.5,212.3,155.7z"/>
<path style="fill:#66C6B9;" d="M429.9,244.3c-16,12.8-37.3,14.9-51.2,0c-13.9-14.9-13.9-40.5,2.1-53.3
	c13.9-17.1,101.3-11.7,102.4-8.5C482.1,178.1,443.7,227.2,429.9,244.3z"/>
<g>
	<path style="fill:#415A6B;" d="M443.7,193.1c-45.9,22.4-81.1,64-93.9,115.2c-2.1-2.1-4.3-5.3-6.4-7.5
		C358.4,251.7,395.7,213.3,443.7,193.1z"/>
	<rect x="344.9" y="85.3" style="fill:#415A6B;" width="12" height="214.4"/>
</g>
<path style="fill:#F3705A;" d="M257.1,346.7c16-35.2,52.3-60.8,93.9-60.8s77.9,24.5,93.9,60.8H257.1z"/>
<path style="fill:#ffe0bd;" d="M512,320c0,0-38.4,25.6-50.1,30.9c0,0-29.9,23.5-48,30.9s-71.5,32-71.5,32s-14.9,20.3-45.9,19.2
	c-30.9-1.1-99.2,2.1-99.2,2.1s-60.8,8.5-74.7,14.9l-84.3-81.1l80-44.8c25.6-13.9,54.4-21.3,83.2-20.3c17.1,1.1,35.2,4.3,50.1,13.9
	c0,0,44.8,11.7,82.1,12.8c37.3,1.1,48,10.7,48,10.7s9.6-6.4,23.5-5.3c0,0,22.4-13.9,40.5-14.9c0,0,34.1-21.3,51.2-17.1
	C512,309.3,512,320,512,320z"/>
<path style="fill:#ffe0bd;" d="M225.1,390.4l25.6-3.2l12.8-2.1l6.4-1.1c2.1,0,4.3-1.1,6.4-1.1c4.3,0,8.5,0,12.8,0h12.8
	c8.5,0,17.1,0,25.6,1.1l0,0c4.3,0,8.5-1.1,12.8-1.1l12.8-1.1l26.7-2.1l0,0c2.1,0,4.3-1.1,6.4-3.2c2.1-1.1,3.2-3.2,5.3-5.3
	c2.1-4.3,3.2-9.6,2.1-13.9c0-1.1,0-2.1-1.1-3.2c0-1.1-1.1-2.1-1.1-3.2c-1.1-2.1-2.1-4.3-3.2-5.3c-1.1-2.1-2.1-3.2-4.3-5.3
	c-1.1,0-1.1,0-1.1,0l0,0c1.1,2.1,3.2,3.2,4.3,5.3c1.1,2.1,2.1,3.2,3.2,5.3c1.1,2.1,1.1,4.3,1.1,6.4c1.1,4.3,0,8.5-2.1,12.8
	c-1.1,2.1-3.2,3.2-4.3,4.3c-2.1,1.1-3.2,2.1-5.3,2.1c-8.5,0-17.1,1.1-26.7,1.1l-26.7,1.1l0,0c-8.5,0-17.1,0-25.6,0H288
	c-4.3,0-8.5,0-12.8,1.1c-2.1,0-4.3,1.1-6.4,1.1l-6.4,3.2l-12.8,2.1L225.1,390.4z"/>
<path style="fill:#F3F3F3;" d="M349.9,360.5c0,5.3,1.1,8.5,6.4,11.7c5.3,2.1,16,2.1,18.1,2.1c10.7,0,10.7-28.8,0-28.8
	c-4.3,0-14.9-1.1-17.1-1.1C353.1,346.7,349.9,354.1,349.9,360.5z"/>
<polygon style="fill:#E8EAE9;" points="53.3,340.3 91.7,478.9 151.5,462.9 114.1,324.3 "/>
<polygon style="fill:#415A6B;" points="0,345.6 44.8,512 135.5,487.5 90.7,321.1 "/>
<path style="fill:#F3F3F3;" d="M487.5,336c0,0-4.3-7.5-1.1-10.7s21.3-10.7,25.6-5.3"/>
<circle style="fill:#FFD15C;" cx="350.9" cy="77.9" r="77.9"/>
<circle style="fill:#F7B64C;" cx="350.9" cy="77.9" r="58.7"/>
<path style="fill:#FFD15C;" d="M347.7,115.2v-6.4c-7.5-1.1-14.9-4.3-21.3-10.7l8.5-10.7c4.3,4.3,8.5,6.4,12.8,7.5V82.1
	c-6.4-2.1-10.7-4.3-13.9-6.4c-3.2-3.2-5.3-6.4-5.3-11.7s2.1-9.6,5.3-12.8c3.2-3.2,7.5-5.3,12.8-6.4v-4.3h9.6v4.3
	c6.4,1.1,11.7,3.2,18.1,7.5L366.8,63c-4.3-3.2-7.5-4.3-10.7-5.3v12.8c6.4,2.1,11.7,4.3,14.9,6.4c3.2,3.2,4.3,6.4,4.3,11.7
	c0,5.3-2.1,9.6-5.3,12.8c-3.2,3.2-8.5,5.3-13.9,6.4v6.4h-8.5v1H347.7z M347.7,57.6c-2.1,1.1-4.3,2.1-4.3,5.3c0,2.1,1.1,4.3,4.3,5.3
	V57.6z M361.6,90.7c0-1.1,0-2.1-1.1-3.2s-2.1-2.1-3.2-2.1V96C360.5,94.9,361.6,93.9,361.6,90.7z"/>
<g>
</g>
<g>
</g>
<g>
</g>
<g>
</g>
<g>
</g>
<g>
</g>
<g>
</g>
<g>
</g>
<g>
</g>
<g>
</g>
<g>
</g>
<g>
</g>
<g>
</g>
<g>
</g>
<g>
</g>
</svg>
