<?xml version="1.0" encoding="iso-8859-1"?>
<!-- Generator: Adobe Illustrator 19.0.0, SVG Export Plug-In . SVG Version: 6.00 Build 0)  -->
<svg xmlns="http://www.w3.org/2000/svg" xmlns:xlink="http://www.w3.org/1999/xlink" version="1.1" id="Capa_1" x="0px" y="0px" viewBox="0 0 512 512" style="enable-background:new 0 0 512 512;" xml:space="preserve" width="512px" height="512px">
<g>
	<g>
		<path d="M467,0c-24.814,0-45,20.186-45,45c0,4.929,0.991,9.589,2.463,14.031l-185.42,185.435    c-9.889-3.279-18.153-3.291-28.083-0.002l-33.422-33.431C179.009,206.591,180,201.929,180,197c0-24.814-20.186-45-45-45    c-24.814,0-45,20.186-45,45c0,4.929,0.991,9.591,2.463,14.033l-33.422,33.431C54.597,242.992,49.933,242,45,242    c-24.814,0-45,20.186-45,45c0,24.814,20.186,45,45,45s45-20.186,45-45c0-8.84-2.653-17.036-7.073-23.998l28.07-28.079    C117.96,239.347,126.156,242,135,242s17.04-2.653,24.003-7.077l28.07,28.079C182.653,269.964,180,278.16,180,287    c0,24.814,20.186,45,45,45c24.814,0,45-20.186,45-45c0-8.84-2.653-17.034-7.073-23.996L442.995,82.923    C449.958,87.347,458.156,90,467,90c24.814,0,45-20.186,45-45C512,20.186,491.814,0,467,0z" fill="#FFFFFF"/>
	</g>
</g>
<g>
	<g>
		<polygon points="150,310.789 150,512 210,512 210,370.789   " fill="#FFFFFF"/>
	</g>
</g>
<g>
	<g>
		<polygon points="240,370.789 240,512 300.786,512 300.786,310.203   " fill="#FFFFFF"/>
	</g>
</g>
<g>
	<g>
		<path d="M34.395,396.394C31.582,399.207,30,403.016,30,407v90c0,8.291,6.709,15,15,15h75V310.789L34.395,396.394z" fill="#FFFFFF"/>
	</g>
</g>
<g>
	<g>
		<polygon points="332,280.203 332,512 387.893,512 387.893,224.51   " fill="#FFFFFF"/>
	</g>
</g>
<g>
	<g>
		<path d="M486.395,126.395L418.08,194.51V512H497c8.291,0,15-6.709,15-15V137C512,123.639,495.771,116.954,486.395,126.395z" fill="#FFFFFF"/>
	</g>
</g>
<g>
</g>
<g>
</g>
<g>
</g>
<g>
</g>
<g>
</g>
<g>
</g>
<g>
</g>
<g>
</g>
<g>
</g>
<g>
</g>
<g>
</g>
<g>
</g>
<g>
</g>
<g>
</g>
<g>
</g>
</svg>
