<?xml version="1.0" encoding="utf-8"?>
<!-- Generator: Adobe Illustrator 16.0.0, SVG Export Plug-In . SVG Version: 6.00 Build 0)  -->
<!DOCTYPE svg PUBLIC "-//W3C//DTD SVG 1.1//EN" "http://www.w3.org/Graphics/SVG/1.1/DTD/svg11.dtd">
<svg version="1.1" id="Layer_1" xmlns="http://www.w3.org/2000/svg" xmlns:xlink="http://www.w3.org/1999/xlink" x="0px" y="0px"
	 width="130px" height="130px" viewBox="0 0 130 130" enable-background="new 0 0 130 130" xml:space="preserve">
<g>
	<g id="Shape_1_copy_3_30_">
		<ellipse fill="#00ACF0" cx="65" cy="65" rx="64" ry="64.017"/>
	</g>
	<g id="Shape_164">
		<path fill="#FFFFFF" d="M93.648,48.407c4.562-2.979,4.965-7.065,4.965-7.065c-1.476,2.036-8.051,3.121-8.051,3.121
			c-5.635-6.649-14.089-3.121-14.089-3.121c-9.928,3.529-8.452,15.064-8.452,15.064c-17.308-0.271-26.7-13.57-26.7-13.57
			c-5.167,10.855,3.556,17.438,3.556,17.438c-1.946,0.203-5.434-1.357-5.434-1.357c-0.134,9.976,10.197,13.507,10.197,13.507
			c-0.939,0.134-5.368,0.134-5.368,0.134c2.282,8.144,11.94,8.958,11.94,8.958c-9.392,7.059-18.783,5.837-18.783,5.837
			c9.258,7.057,18.432,6.312,24.688,5.429c15.379-2.175,23.615-13.438,23.615-13.438c10.867-13.979,7.245-25.787,8.99-26.465
			c0.028-0.012,0.058-0.024,0.088-0.039c1.797-0.817,5.949-6.068,5.949-6.068C97.809,48.398,93.648,48.407,93.648,48.407z"/>
	</g>
</g>
</svg>
